<svg width="36" height="35" viewBox="0 0 36 35" fill="none" xmlns="http://www.w3.org/2000/svg">
<path d="M31.879 2.25008C30.669 1.35175 28.9273 2.21341 28.9273 3.73508V3.91842C28.9273 6.06342 27.3873 8.04342 25.2423 8.26342C22.7673 8.52008 20.6773 6.57675 20.6773 4.15675V2.25008C20.6773 1.24175 19.8523 0.416748 18.844 0.416748H17.1573C16.149 0.416748 15.324 1.24175 15.324 2.25008V4.15675C15.324 5.60508 14.5723 6.88842 13.4357 7.60342C13.2707 7.71342 13.0873 7.80508 12.904 7.89675C12.739 7.98842 12.5557 8.06175 12.354 8.11675C12.134 8.19008 11.8956 8.24508 11.639 8.26342C11.3456 8.30008 11.0523 8.30008 10.759 8.26342C10.5023 8.24508 10.264 8.19008 10.044 8.11675C9.86065 8.06175 9.67732 7.98842 9.49398 7.89675C9.31065 7.80508 9.12732 7.71342 8.96232 7.60342C7.80732 6.79675 7.07398 5.40342 7.07398 3.91842V3.73508C7.07398 2.32341 5.57065 1.48008 4.37898 2.08508C4.36065 2.10341 4.34232 2.10341 4.32398 2.12175C4.25065 2.15841 4.19565 2.19508 4.12232 2.25008C4.06732 2.30508 3.99398 2.34175 3.93898 2.39675C3.42565 2.80008 2.96732 3.25842 2.58232 3.75342C2.38065 3.97342 2.21565 4.21175 2.06898 4.45008C2.05065 4.46841 2.03232 4.48675 2.01398 4.52342C1.84898 4.76175 1.70232 5.03675 1.57398 5.29342C1.53732 5.33008 1.51898 5.34842 1.51898 5.38508C1.40898 5.60508 1.29898 5.82508 1.22565 6.06342C1.17065 6.15508 1.15232 6.22842 1.11565 6.32008C1.00565 6.59508 0.932318 6.87008 0.858985 7.14508C0.785651 7.40175 0.730651 7.67675 0.693984 7.95175C0.657318 8.15342 0.638984 8.35508 0.620651 8.57508C0.602318 8.83175 0.583984 9.08842 0.583984 9.34508V25.4051C0.583984 30.3368 4.58065 34.3334 9.51232 34.3334H26.489C31.4206 34.3334 35.4173 30.3368 35.4173 25.4051V9.34508C35.4173 6.43008 34.024 3.88175 31.879 2.25008ZM18.0007 23.7918H14.9023V27.0001C14.9023 27.7518 14.279 28.3751 13.5273 28.3751C12.7573 28.3751 12.1523 27.7518 12.1523 27.0001V23.7918H8.83398C8.08232 23.7918 7.45898 23.1684 7.45898 22.4168C7.45898 21.6651 8.08232 21.0418 8.83398 21.0418H12.1523V17.8334C12.1523 17.0818 12.7573 16.4584 13.5273 16.4584C14.279 16.4584 14.9023 17.0818 14.9023 17.8334V21.0418H18.0007C18.7523 21.0418 19.3757 21.6651 19.3757 22.4168C19.3757 23.1684 18.7523 23.7918 18.0007 23.7918Z" fill="white"/>
</svg>
