<svg width="40" height="40" viewBox="0 0 40 40" fill="none" xmlns="http://www.w3.org/2000/svg">
<path d="M38.3332 18.6251H34.5932C33.9332 11.6401 28.3598 6.04842 21.3748 5.40675V1.66675C21.3748 0.915082 20.7515 0.291748 19.9998 0.291748C19.2482 0.291748 18.6248 0.915082 18.6248 1.66675V5.40675C11.6398 6.06675 6.04817 11.6401 5.4065 18.6251H1.6665C0.914837 18.6251 0.291504 19.2484 0.291504 20.0001C0.291504 20.7518 0.914837 21.3751 1.6665 21.3751H5.4065C6.0665 28.3601 11.6398 33.9518 18.6248 34.5934V38.3334C18.6248 39.0851 19.2482 39.7084 19.9998 39.7084C20.7515 39.7084 21.3748 39.0851 21.3748 38.3334V34.5934C28.3598 33.9334 33.9515 28.3601 34.5932 21.3751H38.3332C39.0848 21.3751 39.7082 20.7518 39.7082 20.0001C39.7082 19.2484 39.0848 18.6251 38.3332 18.6251ZM19.9998 25.7201C16.8465 25.7201 14.2798 23.1534 14.2798 20.0001C14.2798 16.8468 16.8465 14.2801 19.9998 14.2801C23.1532 14.2801 25.7198 16.8468 25.7198 20.0001C25.7198 23.1534 23.1532 25.7201 19.9998 25.7201Z" fill="white"/>
</svg>
