<svg width="44" height="44" viewBox="0 0 44 44" fill="none" xmlns="http://www.w3.org/2000/svg">
<path d="M39.875 14.6666C39.875 15.4182 39.2517 16.0416 38.5 16.0416H5.5C4.74833 16.0416 4.125 15.4182 4.125 14.6666C4.125 13.9149 4.74833 13.2916 5.5 13.2916H7.37L8.06667 9.97323C8.72667 6.7649 10.1017 3.81323 15.565 3.81323H28.435C33.8983 3.81323 35.2733 6.7649 35.9333 9.97323L36.63 13.2916H38.5C39.2517 13.2916 39.875 13.9149 39.875 14.6666Z" fill="white"/>
<path d="M40.6636 25.0434C40.3886 22.0184 39.5819 18.7917 33.6969 18.7917H10.3036C4.41857 18.7917 3.63024 22.0184 3.33691 25.0434L2.31024 36.2084C2.18191 37.6017 2.64024 38.9951 3.59357 40.0401C4.56524 41.1034 5.94024 41.7084 7.40691 41.7084H10.8536C13.8236 41.7084 14.3919 40.0034 14.7586 38.8851L15.1252 37.7851C15.5469 36.5201 15.6569 36.2084 17.3069 36.2084H26.6936C28.3436 36.2084 28.3986 36.3918 28.8752 37.7851L29.2419 38.8851C29.6086 40.0034 30.1769 41.7084 33.1469 41.7084H36.5936C38.0419 41.7084 39.4352 41.1034 40.4069 40.0401C41.3602 38.9951 41.8186 37.6017 41.6902 36.2084L40.6636 25.0434ZM16.5002 28.8751H11.0002C10.2486 28.8751 9.62524 28.2517 9.62524 27.5001C9.62524 26.7484 10.2486 26.1251 11.0002 26.1251H16.5002C17.2519 26.1251 17.8752 26.7484 17.8752 27.5001C17.8752 28.2517 17.2519 28.8751 16.5002 28.8751ZM33.0002 28.8751H27.5002C26.7486 28.8751 26.1252 28.2517 26.1252 27.5001C26.1252 26.7484 26.7486 26.1251 27.5002 26.1251H33.0002C33.7519 26.1251 34.3752 26.7484 34.3752 27.5001C34.3752 28.2517 33.7519 28.8751 33.0002 28.8751Z" fill="white"/>
</svg>
